<mxfile host="app.diagrams.net" agent="Mozilla/5.0 (Macintosh; Intel Mac OS X 10_15_7) AppleWebKit/537.36 (KHTML, like Gecko) Chrome/132.0.0.0 Safari/537.36" version="26.0.8">
  <diagram name="Page-1" id="CuwldqiQrgDCLtuFTSgv">
    <mxGraphModel dx="1286" dy="933" grid="1" gridSize="10" guides="1" tooltips="1" connect="1" arrows="1" fold="1" page="1" pageScale="1" pageWidth="827" pageHeight="1169" math="0" shadow="0">
      <root>
        <mxCell id="0" />
        <mxCell id="1" parent="0" />
        <mxCell id="VUKmSN8Ib2tN8eBci2G9-4" style="edgeStyle=orthogonalEdgeStyle;rounded=0;orthogonalLoop=1;jettySize=auto;html=1;entryX=0.5;entryY=0;entryDx=0;entryDy=0;" edge="1" parent="1" source="VUKmSN8Ib2tN8eBci2G9-1" target="VUKmSN8Ib2tN8eBci2G9-2">
          <mxGeometry relative="1" as="geometry" />
        </mxCell>
        <mxCell id="VUKmSN8Ib2tN8eBci2G9-1" value="Start" style="ellipse;whiteSpace=wrap;html=1;" vertex="1" parent="1">
          <mxGeometry x="340" y="100" width="120" height="80" as="geometry" />
        </mxCell>
        <mxCell id="VUKmSN8Ib2tN8eBci2G9-5" style="edgeStyle=orthogonalEdgeStyle;rounded=0;orthogonalLoop=1;jettySize=auto;html=1;exitX=0.5;exitY=1;exitDx=0;exitDy=0;entryX=0.5;entryY=0;entryDx=0;entryDy=0;" edge="1" parent="1" source="VUKmSN8Ib2tN8eBci2G9-2" target="VUKmSN8Ib2tN8eBci2G9-3">
          <mxGeometry relative="1" as="geometry" />
        </mxCell>
        <mxCell id="VUKmSN8Ib2tN8eBci2G9-2" value="CT Scan dataset" style="shape=parallelogram;perimeter=parallelogramPerimeter;whiteSpace=wrap;html=1;fixedSize=1;" vertex="1" parent="1">
          <mxGeometry x="340" y="230" width="120" height="60" as="geometry" />
        </mxCell>
        <mxCell id="VUKmSN8Ib2tN8eBci2G9-3" value="Download Script" style="rounded=0;whiteSpace=wrap;html=1;" vertex="1" parent="1">
          <mxGeometry x="340" y="340" width="120" height="60" as="geometry" />
        </mxCell>
        <mxCell id="VUKmSN8Ib2tN8eBci2G9-11" style="edgeStyle=orthogonalEdgeStyle;rounded=0;orthogonalLoop=1;jettySize=auto;html=1;exitX=0.5;exitY=1;exitDx=0;exitDy=0;entryX=0.5;entryY=0;entryDx=0;entryDy=0;" edge="1" parent="1" source="VUKmSN8Ib2tN8eBci2G9-6" target="VUKmSN8Ib2tN8eBci2G9-10">
          <mxGeometry relative="1" as="geometry" />
        </mxCell>
        <mxCell id="VUKmSN8Ib2tN8eBci2G9-6" value="Data" style="shape=parallelogram;perimeter=parallelogramPerimeter;whiteSpace=wrap;html=1;fixedSize=1;" vertex="1" parent="1">
          <mxGeometry x="220" y="450" width="120" height="60" as="geometry" />
        </mxCell>
        <mxCell id="VUKmSN8Ib2tN8eBci2G9-7" value="Logs(missing and corrupted data)" style="shape=parallelogram;perimeter=parallelogramPerimeter;whiteSpace=wrap;html=1;fixedSize=1;" vertex="1" parent="1">
          <mxGeometry x="440" y="450" width="120" height="60" as="geometry" />
        </mxCell>
        <mxCell id="VUKmSN8Ib2tN8eBci2G9-8" style="edgeStyle=orthogonalEdgeStyle;rounded=0;orthogonalLoop=1;jettySize=auto;html=1;exitX=0.5;exitY=1;exitDx=0;exitDy=0;entryX=0.592;entryY=0.017;entryDx=0;entryDy=0;entryPerimeter=0;" edge="1" parent="1" source="VUKmSN8Ib2tN8eBci2G9-3" target="VUKmSN8Ib2tN8eBci2G9-6">
          <mxGeometry relative="1" as="geometry" />
        </mxCell>
        <mxCell id="VUKmSN8Ib2tN8eBci2G9-9" style="edgeStyle=orthogonalEdgeStyle;rounded=0;orthogonalLoop=1;jettySize=auto;html=1;exitX=0.5;exitY=1;exitDx=0;exitDy=0;entryX=0.558;entryY=0.033;entryDx=0;entryDy=0;entryPerimeter=0;" edge="1" parent="1" source="VUKmSN8Ib2tN8eBci2G9-3" target="VUKmSN8Ib2tN8eBci2G9-7">
          <mxGeometry relative="1" as="geometry" />
        </mxCell>
        <mxCell id="VUKmSN8Ib2tN8eBci2G9-13" style="edgeStyle=orthogonalEdgeStyle;rounded=0;orthogonalLoop=1;jettySize=auto;html=1;exitX=0.5;exitY=1;exitDx=0;exitDy=0;entryX=0.5;entryY=0;entryDx=0;entryDy=0;" edge="1" parent="1" source="VUKmSN8Ib2tN8eBci2G9-10" target="VUKmSN8Ib2tN8eBci2G9-12">
          <mxGeometry relative="1" as="geometry" />
        </mxCell>
        <mxCell id="VUKmSN8Ib2tN8eBci2G9-10" value="Metadata extraction" style="rounded=0;whiteSpace=wrap;html=1;" vertex="1" parent="1">
          <mxGeometry x="340" y="585" width="120" height="60" as="geometry" />
        </mxCell>
        <mxCell id="VUKmSN8Ib2tN8eBci2G9-15" style="edgeStyle=orthogonalEdgeStyle;rounded=0;orthogonalLoop=1;jettySize=auto;html=1;exitX=0.5;exitY=1;exitDx=0;exitDy=0;entryX=0.5;entryY=0;entryDx=0;entryDy=0;" edge="1" parent="1" source="VUKmSN8Ib2tN8eBci2G9-12" target="VUKmSN8Ib2tN8eBci2G9-14">
          <mxGeometry relative="1" as="geometry" />
        </mxCell>
        <mxCell id="VUKmSN8Ib2tN8eBci2G9-12" value="Schema definition" style="rounded=0;whiteSpace=wrap;html=1;" vertex="1" parent="1">
          <mxGeometry x="340" y="690" width="120" height="60" as="geometry" />
        </mxCell>
        <mxCell id="VUKmSN8Ib2tN8eBci2G9-17" style="edgeStyle=orthogonalEdgeStyle;rounded=0;orthogonalLoop=1;jettySize=auto;html=1;exitX=0.5;exitY=1;exitDx=0;exitDy=0;entryX=0.5;entryY=0;entryDx=0;entryDy=0;" edge="1" parent="1" source="VUKmSN8Ib2tN8eBci2G9-14" target="VUKmSN8Ib2tN8eBci2G9-16">
          <mxGeometry relative="1" as="geometry" />
        </mxCell>
        <mxCell id="VUKmSN8Ib2tN8eBci2G9-14" value="ETL script to store metadata" style="rounded=0;whiteSpace=wrap;html=1;" vertex="1" parent="1">
          <mxGeometry x="340" y="800" width="120" height="60" as="geometry" />
        </mxCell>
        <mxCell id="VUKmSN8Ib2tN8eBci2G9-19" style="edgeStyle=orthogonalEdgeStyle;rounded=0;orthogonalLoop=1;jettySize=auto;html=1;exitX=0.5;exitY=1;exitDx=0;exitDy=0;entryX=0.5;entryY=0;entryDx=0;entryDy=0;" edge="1" parent="1" source="VUKmSN8Ib2tN8eBci2G9-16" target="VUKmSN8Ib2tN8eBci2G9-18">
          <mxGeometry relative="1" as="geometry" />
        </mxCell>
        <mxCell id="VUKmSN8Ib2tN8eBci2G9-16" value="Metadata" style="shape=parallelogram;perimeter=parallelogramPerimeter;whiteSpace=wrap;html=1;fixedSize=1;" vertex="1" parent="1">
          <mxGeometry x="340" y="910" width="120" height="60" as="geometry" />
        </mxCell>
        <mxCell id="VUKmSN8Ib2tN8eBci2G9-22" style="edgeStyle=orthogonalEdgeStyle;rounded=0;orthogonalLoop=1;jettySize=auto;html=1;exitX=0.5;exitY=1;exitDx=0;exitDy=0;entryX=0.5;entryY=0;entryDx=0;entryDy=0;" edge="1" parent="1" source="VUKmSN8Ib2tN8eBci2G9-18" target="VUKmSN8Ib2tN8eBci2G9-20">
          <mxGeometry relative="1" as="geometry" />
        </mxCell>
        <mxCell id="VUKmSN8Ib2tN8eBci2G9-18" value="Generate summary statistics and graphs" style="rounded=0;whiteSpace=wrap;html=1;" vertex="1" parent="1">
          <mxGeometry x="340" y="1020" width="120" height="60" as="geometry" />
        </mxCell>
        <mxCell id="VUKmSN8Ib2tN8eBci2G9-24" style="edgeStyle=orthogonalEdgeStyle;rounded=0;orthogonalLoop=1;jettySize=auto;html=1;exitX=0.5;exitY=1;exitDx=0;exitDy=0;" edge="1" parent="1" source="VUKmSN8Ib2tN8eBci2G9-20" target="VUKmSN8Ib2tN8eBci2G9-21">
          <mxGeometry relative="1" as="geometry" />
        </mxCell>
        <mxCell id="VUKmSN8Ib2tN8eBci2G9-20" value="Metadata summary and graphs" style="shape=parallelogram;perimeter=parallelogramPerimeter;whiteSpace=wrap;html=1;fixedSize=1;" vertex="1" parent="1">
          <mxGeometry x="320" y="1130" width="160" height="70" as="geometry" />
        </mxCell>
        <mxCell id="VUKmSN8Ib2tN8eBci2G9-21" value="End" style="ellipse;whiteSpace=wrap;html=1;" vertex="1" parent="1">
          <mxGeometry x="340" y="1250" width="120" height="80" as="geometry" />
        </mxCell>
      </root>
    </mxGraphModel>
  </diagram>
</mxfile>
